<svg width="141" height="141" viewBox="0 0 141 141" fill="none" xmlns="http://www.w3.org/2000/svg">
<ellipse cx="45" cy="95" rx="7" ry="8" fill="#363232"/>
<ellipse cx="46.5" cy="93" rx="2.5" ry="3" fill="white"/>
<circle cx="42" cy="98" r="1" fill="white"/>
<ellipse cx="95" cy="95" rx="7" ry="8" fill="#363232"/>
<ellipse cx="96.5" cy="93" rx="2.5" ry="3" fill="white"/>
<circle cx="92" cy="98" r="1" fill="white"/>
<ellipse cx="36" cy="105.5" rx="5" ry="3.5" fill="#F1CCD9"/>
<ellipse cx="103" cy="105.5" rx="5" ry="3.5" fill="#F1CCD9"/>
<path d="M70.6212 24.1783C61.0422 25.465 51.7495 31.6166 43.6197 40.225V67.1782H96.6196V35.5874C88.4027 27.698 79.3425 23.0068 70.6212 24.1783Z" fill="#393939"/>
<path d="M43.6197 40.225C23.3176 61.7221 9.57289 91.5 19.0727 113C28.5725 134.5 95.6208 136.678 119.121 119.178C136.503 106.234 119.965 58.0024 96.6196 35.5874M43.6197 40.225C51.7495 31.6166 61.0422 25.465 70.6212 24.1783C79.3425 23.0068 88.4027 27.698 96.6196 35.5874M43.6197 40.225V67.1782H96.6196V35.5874M62.5 94.5C62.7866 98.804 64 100.5 66 100.5C68 100.5 69.3274 98.8782 70 95.5C70.535 98.7726 71.5 100.5 74 100.5C76.5 100.5 77.6693 98.0214 78 94.5" stroke="#393939" stroke-width="3"/>
<circle cx="70.5" cy="70.5" r="68.5" stroke="#393939" stroke-width="4"/>
</svg>
